<svg width="204" height="204" viewBox="0 0 204 204" fill="none" xmlns="http://www.w3.org/2000/svg">
<circle cx="102" cy="102" r="102" fill="#DADADA"/>
<path d="M77.27 142.119C76.4427 142.119 75.6947 141.977 75.026 141.694C74.3687 141.411 73.8473 141.003 73.462 140.47C73.0767 139.937 72.8783 139.308 72.867 138.583H75.417C75.451 139.07 75.621 139.456 75.927 139.739C76.2443 140.022 76.675 140.164 77.219 140.164C77.7743 140.164 78.2107 140.034 78.528 139.773C78.8453 139.501 79.004 139.15 79.004 138.719C79.004 138.368 78.8963 138.079 78.681 137.852C78.4657 137.625 78.1937 137.45 77.865 137.325C77.5477 137.189 77.1057 137.042 76.539 136.883C75.7683 136.656 75.1393 136.435 74.652 136.22C74.176 135.993 73.7623 135.659 73.411 135.217C73.071 134.764 72.901 134.163 72.901 133.415C72.901 132.712 73.0767 132.1 73.428 131.579C73.7793 131.058 74.2723 130.661 74.907 130.389C75.5417 130.106 76.267 129.964 77.083 129.964C78.307 129.964 79.2987 130.264 80.058 130.865C80.8287 131.454 81.2537 132.282 81.333 133.347H78.715C78.6923 132.939 78.5167 132.605 78.188 132.344C77.8707 132.072 77.4457 131.936 76.913 131.936C76.4483 131.936 76.0743 132.055 75.791 132.293C75.519 132.531 75.383 132.877 75.383 133.33C75.383 133.647 75.485 133.914 75.689 134.129C75.9043 134.333 76.165 134.503 76.471 134.639C76.7883 134.764 77.2303 134.911 77.797 135.081C78.5677 135.308 79.1967 135.534 79.684 135.761C80.1713 135.988 80.5907 136.328 80.942 136.781C81.2933 137.234 81.469 137.829 81.469 138.566C81.469 139.201 81.3047 139.79 80.976 140.334C80.6473 140.878 80.1657 141.314 79.531 141.643C78.8963 141.96 78.1427 142.119 77.27 142.119ZM85.9124 140.113H89.8224V142H83.5324V130.134H85.9124V140.113ZM90.7571 136.05C90.7571 134.883 91.0178 133.84 91.5391 132.922C92.0718 131.993 92.7914 131.273 93.6981 130.763C94.6161 130.242 95.6418 129.981 96.7751 129.981C98.1011 129.981 99.2628 130.321 100.26 131.001C101.257 131.681 101.954 132.622 102.351 133.823H99.6141C99.3421 133.256 98.9568 132.831 98.4581 132.548C97.9708 132.265 97.4041 132.123 96.7581 132.123C96.0668 132.123 95.4491 132.287 94.9051 132.616C94.3724 132.933 93.9531 133.387 93.6471 133.976C93.3524 134.565 93.2051 135.257 93.2051 136.05C93.2051 136.832 93.3524 137.523 93.6471 138.124C93.9531 138.713 94.3724 139.172 94.9051 139.501C95.4491 139.818 96.0668 139.977 96.7581 139.977C97.4041 139.977 97.9708 139.835 98.4581 139.552C98.9568 139.257 99.3421 138.827 99.6141 138.26H102.351C101.954 139.473 101.257 140.419 100.26 141.099C99.2741 141.768 98.1124 142.102 96.7751 142.102C95.6418 142.102 94.6161 141.847 93.6981 141.337C92.7914 140.816 92.0718 140.096 91.5391 139.178C91.0178 138.26 90.7571 137.217 90.7571 136.05ZM117.321 130.134V142H114.941V134.282L111.762 142H109.96L106.764 134.282V142H104.384V130.134H107.087L110.861 138.957L114.635 130.134H117.321ZM119.096 136.05C119.096 134.883 119.357 133.84 119.878 132.922C120.411 131.993 121.13 131.273 122.037 130.763C122.955 130.242 123.981 129.981 125.114 129.981C126.44 129.981 127.602 130.321 128.599 131.001C129.596 131.681 130.293 132.622 130.69 133.823H127.953C127.681 133.256 127.296 132.831 126.797 132.548C126.31 132.265 125.743 132.123 125.097 132.123C124.406 132.123 123.788 132.287 123.244 132.616C122.711 132.933 122.292 133.387 121.986 133.976C121.691 134.565 121.544 135.257 121.544 136.05C121.544 136.832 121.691 137.523 121.986 138.124C122.292 138.713 122.711 139.172 123.244 139.501C123.788 139.818 124.406 139.977 125.097 139.977C125.743 139.977 126.31 139.835 126.797 139.552C127.296 139.257 127.681 138.827 127.953 138.26H130.69C130.293 139.473 129.596 140.419 128.599 141.099C127.613 141.768 126.451 142.102 125.114 142.102C123.981 142.102 122.955 141.847 122.037 141.337C121.13 140.816 120.411 140.096 119.878 139.178C119.357 138.26 119.096 137.217 119.096 136.05Z" fill="#DB4EC6"/>
<path d="M135.544 61.0073C128.313 61.4238 113.942 62.9399 105.07 68.4523C104.458 68.8327 104.11 69.509 104.11 70.2162V118.949C104.11 120.495 105.777 121.473 107.182 120.755C116.31 116.092 129.512 114.82 136.039 114.471C138.268 114.352 140 112.539 140 110.365V65.1189C140.001 62.747 137.975 60.868 135.544 61.0073ZM98.9303 68.4523C90.0595 62.9399 75.6878 61.4251 68.4572 61.0073C66.0267 60.868 64 62.747 64 65.1189V110.366C64 112.541 65.7325 114.355 67.961 114.473C74.4911 114.821 87.699 116.095 96.827 120.761C98.2283 121.477 99.8895 120.501 99.8895 118.958V70.1921C99.8895 69.4836 99.5438 68.834 98.9303 68.4523Z" fill="#DB4EC6"/>
</svg>
